<mxfile host="app.diagrams.net" agent="Mozilla/5.0 (Windows NT 10.0; Win64; x64) AppleWebKit/537.36 (KHTML, like Gecko) Chrome/130.0.0.0 Safari/537.36 OPR/115.0.0.0" version="26.0.3">
  <diagram name="Page-1" id="HwjLgWfwr1pUTHztu6K4">
    <mxGraphModel dx="1048" dy="491" grid="1" gridSize="10" guides="1" tooltips="1" connect="1" arrows="1" fold="1" page="1" pageScale="1" pageWidth="827" pageHeight="1169" math="0" shadow="0">
      <root>
        <mxCell id="0" />
        <mxCell id="1" parent="0" />
        <mxCell id="sLl4MIFHMiwXFLdLLeV--46" value="" style="html=1;whiteSpace=wrap;" vertex="1" parent="1">
          <mxGeometry x="40" y="65" width="570" height="390" as="geometry" />
        </mxCell>
        <mxCell id="sLl4MIFHMiwXFLdLLeV--6" value="&lt;b&gt;Responsable&amp;nbsp;&lt;/b&gt;&lt;div&gt;&lt;b&gt;Scolarité :&lt;/b&gt;&lt;/div&gt;&lt;div&gt;&lt;b&gt;Actor 1&lt;/b&gt;&lt;/div&gt;" style="shape=umlActor;verticalLabelPosition=bottom;verticalAlign=top;html=1;outlineConnect=0;" vertex="1" parent="1">
          <mxGeometry x="80" y="225" width="30" height="60" as="geometry" />
        </mxCell>
        <mxCell id="sLl4MIFHMiwXFLdLLeV--7" value="&lt;b&gt;Centre d&#39;examen&lt;/b&gt;" style="rounded=0;whiteSpace=wrap;html=1;" vertex="1" parent="1">
          <mxGeometry x="440" y="130" width="120" height="60" as="geometry" />
        </mxCell>
        <mxCell id="sLl4MIFHMiwXFLdLLeV--8" value="&lt;b&gt;Surveillants&lt;/b&gt;" style="rounded=0;whiteSpace=wrap;html=1;" vertex="1" parent="1">
          <mxGeometry x="294" y="230" width="120" height="60" as="geometry" />
        </mxCell>
        <mxCell id="sLl4MIFHMiwXFLdLLeV--9" value="&lt;b&gt;Calendrier Global&lt;/b&gt;" style="rounded=0;whiteSpace=wrap;html=1;" vertex="1" parent="1">
          <mxGeometry x="240" y="130" width="120" height="60" as="geometry" />
        </mxCell>
        <mxCell id="sLl4MIFHMiwXFLdLLeV--10" value="&lt;b&gt;Listes des candidats&lt;/b&gt;" style="rounded=0;whiteSpace=wrap;html=1;" vertex="1" parent="1">
          <mxGeometry x="230" y="320" width="120" height="60" as="geometry" />
        </mxCell>
        <mxCell id="sLl4MIFHMiwXFLdLLeV--11" value="&lt;b&gt;Salles&lt;/b&gt;" style="rounded=0;whiteSpace=wrap;html=1;" vertex="1" parent="1">
          <mxGeometry x="440" y="320" width="120" height="60" as="geometry" />
        </mxCell>
        <mxCell id="sLl4MIFHMiwXFLdLLeV--12" value="" style="endArrow=classic;html=1;rounded=0;" edge="1" parent="1">
          <mxGeometry width="50" height="50" relative="1" as="geometry">
            <mxPoint x="140" y="210" as="sourcePoint" />
            <mxPoint x="190" y="180" as="targetPoint" />
          </mxGeometry>
        </mxCell>
        <mxCell id="sLl4MIFHMiwXFLdLLeV--15" value="" style="endArrow=none;html=1;rounded=0;entryX=0;entryY=0.5;entryDx=0;entryDy=0;" edge="1" parent="1" target="sLl4MIFHMiwXFLdLLeV--10">
          <mxGeometry width="50" height="50" relative="1" as="geometry">
            <mxPoint x="120" y="270" as="sourcePoint" />
            <mxPoint x="190" y="220" as="targetPoint" />
          </mxGeometry>
        </mxCell>
        <mxCell id="sLl4MIFHMiwXFLdLLeV--16" value="" style="endArrow=none;html=1;rounded=0;entryX=0;entryY=0.5;entryDx=0;entryDy=0;" edge="1" parent="1" target="sLl4MIFHMiwXFLdLLeV--8">
          <mxGeometry width="50" height="50" relative="1" as="geometry">
            <mxPoint x="120" y="260" as="sourcePoint" />
            <mxPoint x="190" y="210" as="targetPoint" />
          </mxGeometry>
        </mxCell>
        <mxCell id="sLl4MIFHMiwXFLdLLeV--17" value="" style="endArrow=none;html=1;rounded=0;entryX=0;entryY=0.5;entryDx=0;entryDy=0;exitX=0.5;exitY=0.5;exitDx=0;exitDy=0;exitPerimeter=0;" edge="1" parent="1" source="sLl4MIFHMiwXFLdLLeV--6" target="sLl4MIFHMiwXFLdLLeV--9">
          <mxGeometry width="50" height="50" relative="1" as="geometry">
            <mxPoint x="160" y="220" as="sourcePoint" />
            <mxPoint x="210" y="170" as="targetPoint" />
          </mxGeometry>
        </mxCell>
        <mxCell id="sLl4MIFHMiwXFLdLLeV--19" value="" style="endArrow=none;html=1;rounded=0;entryX=0;entryY=0.5;entryDx=0;entryDy=0;exitX=1;exitY=0.5;exitDx=0;exitDy=0;" edge="1" parent="1" source="sLl4MIFHMiwXFLdLLeV--9" target="sLl4MIFHMiwXFLdLLeV--7">
          <mxGeometry width="50" height="50" relative="1" as="geometry">
            <mxPoint x="360" y="160" as="sourcePoint" />
            <mxPoint x="440" y="100" as="targetPoint" />
          </mxGeometry>
        </mxCell>
        <mxCell id="sLl4MIFHMiwXFLdLLeV--22" value="" style="endArrow=none;html=1;rounded=0;entryX=-0.017;entryY=0.647;entryDx=0;entryDy=0;exitX=0.5;exitY=0.5;exitDx=0;exitDy=0;exitPerimeter=0;entryPerimeter=0;" edge="1" parent="1" target="sLl4MIFHMiwXFLdLLeV--11">
          <mxGeometry width="50" height="50" relative="1" as="geometry">
            <mxPoint x="350" y="360" as="sourcePoint" />
            <mxPoint x="455" y="260" as="targetPoint" />
          </mxGeometry>
        </mxCell>
        <mxCell id="sLl4MIFHMiwXFLdLLeV--23" value="" style="endArrow=none;html=1;rounded=0;entryX=0.5;entryY=0;entryDx=0;entryDy=0;exitX=0.5;exitY=1;exitDx=0;exitDy=0;" edge="1" parent="1" source="sLl4MIFHMiwXFLdLLeV--7" target="sLl4MIFHMiwXFLdLLeV--11">
          <mxGeometry width="50" height="50" relative="1" as="geometry">
            <mxPoint x="472" y="221" as="sourcePoint" />
            <mxPoint x="560" y="220" as="targetPoint" />
          </mxGeometry>
        </mxCell>
        <mxCell id="sLl4MIFHMiwXFLdLLeV--25" value="" style="endArrow=classic;html=1;rounded=0;" edge="1" parent="1">
          <mxGeometry width="50" height="50" relative="1" as="geometry">
            <mxPoint x="190" y="250" as="sourcePoint" />
            <mxPoint x="260" y="250" as="targetPoint" />
          </mxGeometry>
        </mxCell>
        <mxCell id="sLl4MIFHMiwXFLdLLeV--26" value="" style="endArrow=classic;html=1;rounded=0;" edge="1" parent="1">
          <mxGeometry width="50" height="50" relative="1" as="geometry">
            <mxPoint x="160" y="320" as="sourcePoint" />
            <mxPoint x="200" y="350" as="targetPoint" />
          </mxGeometry>
        </mxCell>
        <mxCell id="sLl4MIFHMiwXFLdLLeV--27" value="" style="endArrow=classic;html=1;rounded=0;" edge="1" parent="1">
          <mxGeometry width="50" height="50" relative="1" as="geometry">
            <mxPoint x="414" y="380" as="sourcePoint" />
            <mxPoint x="370" y="380" as="targetPoint" />
          </mxGeometry>
        </mxCell>
        <mxCell id="sLl4MIFHMiwXFLdLLeV--28" value="" style="endArrow=classic;html=1;rounded=0;" edge="1" parent="1">
          <mxGeometry width="50" height="50" relative="1" as="geometry">
            <mxPoint x="510" y="230" as="sourcePoint" />
            <mxPoint x="510" y="280" as="targetPoint" />
          </mxGeometry>
        </mxCell>
        <mxCell id="sLl4MIFHMiwXFLdLLeV--29" value="" style="endArrow=classic;html=1;rounded=0;" edge="1" parent="1">
          <mxGeometry width="50" height="50" relative="1" as="geometry">
            <mxPoint x="374" y="150" as="sourcePoint" />
            <mxPoint x="430" y="150" as="targetPoint" />
          </mxGeometry>
        </mxCell>
        <mxCell id="sLl4MIFHMiwXFLdLLeV--34" value="1 : Génerer" style="text;html=1;align=center;verticalAlign=middle;whiteSpace=wrap;rounded=0;" vertex="1" parent="1">
          <mxGeometry x="90" y="160" width="80" height="30" as="geometry" />
        </mxCell>
        <mxCell id="sLl4MIFHMiwXFLdLLeV--36" value="2 :Séléctionner" style="text;html=1;align=center;verticalAlign=middle;whiteSpace=wrap;rounded=0;" vertex="1" parent="1">
          <mxGeometry x="350" y="100" width="100" height="30" as="geometry" />
        </mxCell>
        <mxCell id="sLl4MIFHMiwXFLdLLeV--37" value="3 : Affecter" style="text;html=1;align=center;verticalAlign=middle;whiteSpace=wrap;rounded=0;" vertex="1" parent="1">
          <mxGeometry x="510" y="240" width="100" height="30" as="geometry" />
        </mxCell>
        <mxCell id="sLl4MIFHMiwXFLdLLeV--38" value="4 : Etablir" style="text;html=1;align=center;verticalAlign=middle;whiteSpace=wrap;rounded=0;" vertex="1" parent="1">
          <mxGeometry x="340" y="390" width="100" height="30" as="geometry" />
        </mxCell>
        <mxCell id="sLl4MIFHMiwXFLdLLeV--39" value="5 : Désigner" style="text;html=1;align=center;verticalAlign=middle;whiteSpace=wrap;rounded=0;" vertex="1" parent="1">
          <mxGeometry x="180" y="220" width="100" height="30" as="geometry" />
        </mxCell>
        <mxCell id="sLl4MIFHMiwXFLdLLeV--40" value="6 : Envoyer(Convocation )" style="text;html=1;align=center;verticalAlign=middle;whiteSpace=wrap;rounded=0;" vertex="1" parent="1">
          <mxGeometry x="40" y="340" width="160" height="30" as="geometry" />
        </mxCell>
      </root>
    </mxGraphModel>
  </diagram>
</mxfile>
